<svg width="120" height="120" viewBox="0 0 161 169" fill="none" xmlns="http://www.w3.org/2000/svg">
<rect width="161" height="169" fill="#F5F5F5"/>
<g clip-path="url(#clip0_0_1)">
<rect width="161" height="169" fill="white"/>
<circle cx="64" cy="61" r="50" fill="#79DC71"/>
<circle cx="72" cy="61" r="50" fill="#3A5838"/>
<circle cx="82" cy="61" r="50" fill="#1D1D1D"/>
<path d="M77.86 45.92C77.86 43.96 77.72 42.32 77.44 41C78.8 40.84 80.18 40.76 81.58 40.76C82.26 40.76 82.6 41.06 82.6 41.66V74.24C82.6 76.24 81.92 77.8 80.56 78.92C79.2 80.04 77.34 80.6 74.98 80.6C72.66 80.6 70.94 80.04 69.82 78.92C68.7 80.04 66.98 80.6 64.66 80.6C62.38 80.6 60.6 80.08 59.32 79.04C58.08 78 57.46 76.48 57.46 74.48V46.1C57.46 45.26 57.28 44.68 56.92 44.36C56.6 44 56.02 43.82 55.18 43.82C55.18 41.54 56.46 40.4 59.02 40.4C61.14 40.4 62.2 41.78 62.2 44.54V74.24C62.2 75 62.44 75.6 62.92 76.04C63.44 76.44 64.1 76.64 64.9 76.64C65.7 76.64 66.36 76.46 66.88 76.1C67.4 75.7 67.66 75.16 67.66 74.48V45.92C67.66 43.96 67.52 42.32 67.24 41C68.6 40.84 69.98 40.76 71.38 40.76C72.06 40.76 72.4 41.06 72.4 41.66V74.24C72.4 75 72.64 75.6 73.12 76.04C73.64 76.44 74.3 76.64 75.1 76.64C75.94 76.64 76.6 76.44 77.08 76.04C77.6 75.6 77.86 75 77.86 74.24V45.92ZM94.8456 59.72C96.2856 59.72 97.3656 59.62 98.0856 59.42C98.4056 60.54 98.5656 61.64 98.5656 62.72C98.5656 63.36 98.2856 63.68 97.7256 63.68H94.1856C93.3456 63.68 92.6656 63.9 92.1456 64.34C91.6656 64.78 91.4256 65.36 91.4256 66.08V74.24C91.4256 75 91.6656 75.6 92.1456 76.04C92.6656 76.44 93.3456 76.64 94.1856 76.64C95.0256 76.64 95.7056 76.44 96.2256 76.04C96.7456 75.6 97.0056 75 97.0056 74.24V72.74L96.8256 69.68C97.3856 69.56 97.9456 69.5 98.5056 69.5C99.0656 69.5 99.6256 69.58 100.186 69.74C101.226 70.02 101.746 70.52 101.746 71.24V75.08C101.746 76.72 101.066 78.06 99.7056 79.1C98.3456 80.1 96.5056 80.6 94.1856 80.6C91.9056 80.6 90.0856 80.04 88.7256 78.92C87.3656 77.8 86.6856 76.24 86.6856 74.24V65.84C86.6856 64.04 87.2656 62.66 88.4256 61.7C87.2656 60.74 86.6856 59.36 86.6856 57.56V46.76C86.6856 44.76 87.3656 43.2 88.7256 42.08C90.0856 40.96 91.8856 40.4 94.1256 40.4C96.4056 40.4 98.2056 40.92 99.5256 41.96C100.846 42.96 101.506 44.28 101.506 45.92V50.96C101.506 51.68 100.986 52.18 99.9456 52.46C99.3856 52.62 98.8256 52.7 98.2656 52.7C97.7056 52.7 97.1456 52.64 96.5856 52.52C96.7056 51.56 96.7656 50.54 96.7656 49.46V46.76C96.7656 45.16 95.8856 44.36 94.1256 44.36C93.2856 44.36 92.6256 44.58 92.1456 45.02C91.6656 45.42 91.4256 46 91.4256 46.76V57.32C91.4256 58.04 91.6456 58.62 92.0856 59.06C92.5656 59.5 93.1856 59.72 93.9456 59.72H94.8456Z" fill="#8FF79B"/>
<path d="M21.512 131.416C21.512 130.2 21.4 128.888 21.176 127.48C22.136 127.352 23.176 127.288 24.296 127.288C24.84 127.288 25.112 127.528 25.112 128.008V146.392C25.112 147.992 24.6 149.24 23.576 150.136C22.584 151.032 21.256 151.48 19.592 151.48C17.96 151.48 16.712 151.048 15.848 150.184C14.984 151.048 13.736 151.48 12.104 151.48C10.504 151.48 9.24 151.064 8.312 150.232C7.384 149.4 6.92 148.184 6.92 146.584V131.464C6.92 130.792 6.792 130.312 6.536 130.024C6.312 129.736 5.864 129.592 5.192 129.592C5.16 128.792 5.384 128.168 5.864 127.72C6.376 127.24 7.08 127 7.976 127C8.872 127 9.512 127.256 9.896 127.768C10.312 128.28 10.52 129.128 10.52 130.312V146.584C10.52 147.128 10.696 147.592 11.048 147.976C11.4 148.328 11.832 148.504 12.344 148.504C12.856 148.504 13.288 148.36 13.64 148.072C14.024 147.752 14.216 147.352 14.216 146.872V131.416C14.216 130.2 14.104 128.888 13.88 127.48C14.84 127.352 15.88 127.288 17 127.288C17.544 127.288 17.816 127.528 17.816 128.008V146.872C17.816 147.352 17.976 147.752 18.296 148.072C18.648 148.36 19.096 148.504 19.64 148.504C20.184 148.504 20.632 148.328 20.984 147.976C21.336 147.592 21.512 147.128 21.512 146.584V131.416ZM35.678 132.136C35.678 131.496 35.486 131 35.102 130.648C34.718 130.264 34.238 130.072 33.662 130.072C32.478 130.072 31.886 130.568 31.886 131.56V138.424L34.19 136.696C35.182 135.96 35.678 134.44 35.678 132.136ZM28.286 146.728V131.704C28.286 128.568 30.126 127 33.806 127C37.518 127 39.374 128.76 39.374 132.28C39.374 133.688 39.118 134.984 38.606 136.168C38.094 137.352 37.39 138.248 36.494 138.856L31.886 142.024V146.392C31.886 147.736 32.51 148.408 33.758 148.408C35.038 148.408 35.678 147.656 35.678 146.152V145.048L35.534 142.792C35.95 142.696 36.366 142.648 36.782 142.648C37.23 142.648 37.646 142.712 38.03 142.84C38.798 143.032 39.182 143.4 39.182 143.944V147.4C39.182 148.68 38.67 149.688 37.646 150.424C36.654 151.128 35.326 151.48 33.662 151.48C30.078 151.48 28.286 149.896 28.286 146.728ZM42.1655 121.24C42.1655 120.28 42.0215 119.304 41.7335 118.312C42.6935 117.8 43.7175 117.544 44.8055 117.544C45.4455 117.544 45.7655 117.784 45.7655 118.264V128.248C46.7575 127.416 47.7815 127 48.8375 127C51.6535 127 53.0615 128.632 53.0615 131.896V145.912C53.0615 147.512 52.5655 148.76 51.5735 149.656C50.5815 150.552 49.2375 151 47.5415 151H42.1655V121.24ZM45.7655 147.928H47.6375C48.1815 147.928 48.6135 147.768 48.9335 147.448C49.2855 147.096 49.4615 146.648 49.4615 146.104V131.944C49.4615 130.856 48.9815 130.312 48.0215 130.312C47.0615 130.312 46.3095 130.808 45.7655 131.8V147.928ZM56.3218 121.24C56.3218 120.28 56.1778 119.304 55.8898 118.312C56.8498 117.8 57.8738 117.544 58.9618 117.544C59.6018 117.544 59.9218 117.784 59.9218 118.264V128.248C60.9138 127.416 61.9378 127 62.9938 127C65.8098 127 67.2178 128.632 67.2178 131.896V145.912C67.2178 147.512 66.7218 148.76 65.7298 149.656C64.7378 150.552 63.3938 151 61.6978 151H56.3218V121.24ZM59.9218 147.928H61.7938C62.3378 147.928 62.7698 147.768 63.0898 147.448C63.4418 147.096 63.6178 146.648 63.6178 146.104V131.944C63.6178 130.856 63.1378 130.312 62.1778 130.312C61.2178 130.312 60.4658 130.808 59.9218 131.8V147.928ZM77.678 132.136C77.678 131.496 77.486 131 77.102 130.648C76.718 130.264 76.238 130.072 75.662 130.072C74.478 130.072 73.886 130.568 73.886 131.56V138.424L76.19 136.696C77.182 135.96 77.678 134.44 77.678 132.136ZM70.286 146.728V131.704C70.286 128.568 72.126 127 75.806 127C79.518 127 81.374 128.76 81.374 132.28C81.374 133.688 81.118 134.984 80.606 136.168C80.094 137.352 79.39 138.248 78.494 138.856L73.886 142.024V146.392C73.886 147.736 74.51 148.408 75.758 148.408C77.038 148.408 77.678 147.656 77.678 146.152V145.048L77.534 142.792C77.95 142.696 78.366 142.648 78.782 142.648C79.23 142.648 79.646 142.712 80.03 142.84C80.798 143.032 81.182 143.4 81.182 143.944V147.4C81.182 148.68 80.67 149.688 79.646 150.424C78.654 151.128 77.326 151.48 75.662 151.48C72.078 151.48 70.286 149.896 70.286 146.728ZM91.7975 131.416C91.7975 129.848 91.6855 128.536 91.4615 127.48C92.4215 127.352 93.4615 127.288 94.5815 127.288C95.1255 127.288 95.3975 127.528 95.3975 128.008V136.744C95.3975 138.216 94.9175 139.384 93.9575 140.248C94.9175 141.048 95.3975 142.216 95.3975 143.752V147.016C95.3975 147.688 95.5095 148.168 95.7335 148.456C95.9895 148.744 96.4535 148.888 97.1255 148.888C97.1575 149.688 96.9175 150.328 96.4055 150.808C95.9255 151.256 95.2375 151.48 94.3415 151.48C93.4455 151.48 92.7895 151.224 92.3735 150.712C91.9895 150.2 91.7975 149.352 91.7975 148.168V143.704C91.7975 143.128 91.6055 142.664 91.2215 142.312C90.8695 141.96 90.4215 141.784 89.8775 141.784C89.3655 141.784 88.9335 141.96 88.5815 142.312C88.2615 142.664 88.1015 143.128 88.1015 143.704V147.064C88.1015 148.28 88.2135 149.592 88.4375 151C87.4775 151.128 86.4375 151.192 85.3175 151.192C84.7735 151.192 84.5015 150.952 84.5015 150.472V143.944C84.5015 142.408 84.9815 141.24 85.9415 140.44C84.9815 139.576 84.5015 138.408 84.5015 136.936V131.464C84.5015 130.792 84.3735 130.312 84.1175 130.024C83.8935 129.736 83.4455 129.592 82.7735 129.592C82.7415 128.792 82.9655 128.168 83.4455 127.72C83.9575 127.24 84.6615 127 85.5575 127C86.4535 127 87.0935 127.256 87.4775 127.768C87.8935 128.28 88.1015 129.128 88.1015 130.312V136.984C88.1015 137.56 88.2775 138.024 88.6295 138.376C88.9815 138.728 89.4135 138.904 89.9255 138.904C90.4695 138.872 90.9175 138.68 91.2695 138.328C91.6215 137.976 91.7975 137.528 91.7975 136.984V131.416ZM103.196 147.928H105.068C105.612 147.928 106.044 147.768 106.364 147.448C106.716 147.096 106.892 146.648 106.892 146.104V131.944C106.892 130.824 106.428 130.264 105.5 130.264C105.02 130.264 104.556 130.456 104.108 130.84C103.692 131.192 103.388 131.576 103.196 131.992V147.928ZM103.196 151V154.84L103.532 158.008C102.668 158.36 101.676 158.536 100.556 158.536C99.9164 158.536 99.5964 158.296 99.5964 157.816V131.464C99.5964 130.792 99.4684 130.312 99.2124 130.024C98.9884 129.736 98.5404 129.592 97.8684 129.592C97.8364 128.76 98.0444 128.12 98.4924 127.672C98.9724 127.224 99.7244 127 100.748 127C101.804 127 102.54 127.496 102.956 128.488C103.948 127.496 105.068 127 106.316 127C107.564 127 108.572 127.432 109.34 128.296C110.108 129.128 110.492 130.328 110.492 131.896V145.912C110.492 147.512 109.996 148.76 109.004 149.656C108.012 150.552 106.668 151 104.972 151H103.196ZM120.944 132.136C120.944 131.496 120.752 131 120.368 130.648C119.984 130.264 119.504 130.072 118.928 130.072C117.744 130.072 117.152 130.568 117.152 131.56V138.424L119.456 136.696C120.448 135.96 120.944 134.44 120.944 132.136ZM113.552 146.728V131.704C113.552 128.568 115.392 127 119.072 127C122.784 127 124.64 128.76 124.64 132.28C124.64 133.688 124.384 134.984 123.872 136.168C123.36 137.352 122.656 138.248 121.76 138.856L117.152 142.024V146.392C117.152 147.736 117.776 148.408 119.024 148.408C120.304 148.408 120.944 147.656 120.944 146.152V145.048L120.8 142.792C121.216 142.696 121.632 142.648 122.048 142.648C122.496 142.648 122.912 142.712 123.296 142.84C124.064 143.032 124.448 143.4 124.448 143.944V147.4C124.448 148.68 123.936 149.688 122.912 150.424C121.92 151.128 120.592 151.48 118.928 151.48C115.344 151.48 113.552 149.896 113.552 146.728ZM131.415 147.064C131.415 148.6 131.527 149.88 131.751 150.904C130.791 151.096 129.751 151.192 128.631 151.192C128.087 151.192 127.815 150.952 127.815 150.472V131.464C127.815 130.792 127.687 130.312 127.431 130.024C127.207 129.736 126.759 129.592 126.087 129.592C126.055 128.76 126.263 128.12 126.711 127.672C127.191 127.224 127.863 127 128.727 127C130.007 127 130.807 127.64 131.127 128.92C131.927 127.64 133.063 127 134.535 127C137.159 127 138.471 128.264 138.471 130.792V135.592C138.471 136.136 138.087 136.504 137.319 136.696C136.935 136.824 136.519 136.888 136.071 136.888C135.655 136.888 135.239 136.84 134.823 136.744C134.919 136.04 134.967 135.288 134.967 134.488V132.04C134.967 130.984 134.487 130.456 133.527 130.456C133.079 130.456 132.663 130.664 132.279 131.08C131.895 131.496 131.607 131.96 131.415 132.472V147.064ZM152.068 147.304C152.068 148.648 151.556 149.688 150.532 150.424C149.508 151.128 148.196 151.48 146.596 151.48C145.028 151.48 143.764 151.08 142.804 150.28C141.876 149.448 141.412 148.344 141.412 146.968V130.36L139.924 130.6C139.7 129.768 139.588 129.048 139.588 128.44C139.588 127.8 139.796 127.48 140.212 127.48H141.508L142.18 122.968C142.308 122.264 142.9 121.912 143.956 121.912C144.276 121.912 144.628 121.944 145.012 122.008V127.48H149.188L151.684 127.24C151.844 128.072 151.924 128.808 151.924 129.448C151.924 130.056 151.716 130.36 151.3 130.36H145.012V146.392C145.012 147.064 145.172 147.592 145.492 147.976C145.844 148.328 146.276 148.504 146.788 148.504C147.972 148.504 148.564 147.72 148.564 146.152V142.648L148.42 140.392C148.836 140.296 149.252 140.248 149.668 140.248C150.116 140.248 150.532 140.312 150.916 140.44C151.684 140.632 152.068 141 152.068 141.544V147.304Z" fill="#1D1D1D"/>
</g>
<defs>
<clipPath id="clip0_0_1">
<rect width="161" height="169" fill="white"/>
</clipPath>
</defs>
</svg>
