<svg width="144" height="144" viewBox="0 0 118 100" fill="none" xmlns="http://www.w3.org/2000/svg">
<g clip-path="url(#clip0_6_2)">
<circle cx="50" cy="50" r="50" fill="#79DC71"/>
<circle cx="58" cy="50" r="50" fill="#3A5838"/>
<circle cx="68" cy="50" r="50" fill="#1D1D1D"/>
<path d="M63.86 34.92C63.86 32.96 63.72 31.32 63.44 30C64.8 29.84 66.18 29.76 67.58 29.76C68.26 29.76 68.6 30.06 68.6 30.66V63.24C68.6 65.24 67.92 66.8 66.56 67.92C65.2 69.04 63.34 69.6 60.98 69.6C58.66 69.6 56.94 69.04 55.82 67.92C54.7 69.04 52.98 69.6 50.66 69.6C48.38 69.6 46.6 69.08 45.32 68.04C44.08 67 43.46 65.48 43.46 63.48V35.1C43.46 34.26 43.28 33.68 42.92 33.36C42.6 33 42.02 32.82 41.18 32.82C41.18 30.54 42.46 29.4 45.02 29.4C47.14 29.4 48.2 30.78 48.2 33.54V63.24C48.2 64 48.44 64.6 48.92 65.04C49.44 65.44 50.1 65.64 50.9 65.64C51.7 65.64 52.36 65.46 52.88 65.1C53.4 64.7 53.66 64.16 53.66 63.48V34.92C53.66 32.96 53.52 31.32 53.24 30C54.6 29.84 55.98 29.76 57.38 29.76C58.06 29.76 58.4 30.06 58.4 30.66V63.24C58.4 64 58.64 64.6 59.12 65.04C59.64 65.44 60.3 65.64 61.1 65.64C61.94 65.64 62.6 65.44 63.08 65.04C63.6 64.6 63.86 64 63.86 63.24V34.92ZM80.8456 48.72C82.2856 48.72 83.3656 48.62 84.0856 48.42C84.4056 49.54 84.5656 50.64 84.5656 51.72C84.5656 52.36 84.2856 52.68 83.7256 52.68H80.1856C79.3456 52.68 78.6656 52.9 78.1456 53.34C77.6656 53.78 77.4256 54.36 77.4256 55.08V63.24C77.4256 64 77.6656 64.6 78.1456 65.04C78.6656 65.44 79.3456 65.64 80.1856 65.64C81.0256 65.64 81.7056 65.44 82.2256 65.04C82.7456 64.6 83.0056 64 83.0056 63.24V61.74L82.8256 58.68C83.3856 58.56 83.9456 58.5 84.5056 58.5C85.0656 58.5 85.6256 58.58 86.1856 58.74C87.2256 59.02 87.7456 59.52 87.7456 60.24V64.08C87.7456 65.72 87.0656 67.06 85.7056 68.1C84.3456 69.1 82.5056 69.6 80.1856 69.6C77.9056 69.6 76.0856 69.04 74.7256 67.92C73.3656 66.8 72.6856 65.24 72.6856 63.24V54.84C72.6856 53.04 73.2656 51.66 74.4256 50.7C73.2656 49.74 72.6856 48.36 72.6856 46.56V35.76C72.6856 33.76 73.3656 32.2 74.7256 31.08C76.0856 29.96 77.8856 29.4 80.1256 29.4C82.4056 29.4 84.2056 29.92 85.5256 30.96C86.8456 31.96 87.5056 33.28 87.5056 34.92V39.96C87.5056 40.68 86.9856 41.18 85.9456 41.46C85.3856 41.62 84.8256 41.7 84.2656 41.7C83.7056 41.7 83.1456 41.64 82.5856 41.52C82.7056 40.56 82.7656 39.54 82.7656 38.46V35.76C82.7656 34.16 81.8856 33.36 80.1256 33.36C79.2856 33.36 78.6256 33.58 78.1456 34.02C77.6656 34.42 77.4256 35 77.4256 35.76V46.32C77.4256 47.04 77.6456 47.62 78.0856 48.06C78.5656 48.5 79.1856 48.72 79.9456 48.72H80.8456Z" fill="#8FF79B"/>
</g>
<defs>
<clipPath id="clip0_6_2">
<rect width="118" height="100" fill="white"/>
</clipPath>
</defs>
</svg>
